<svg width="74" height="82" viewBox="0 0 74 82" fill="none" xmlns="http://www.w3.org/2000/svg">
<path d="M67.7623 57.6094C67.7623 47.1085 59.221 38.5648 48.7177 38.5648C38.2191 38.5648 29.6755 47.1085 29.6755 57.6094C29.6755 68.1103 38.2191 76.654 48.7177 76.654C59.221 76.654 67.7623 68.1103 67.7623 57.6094ZM25.0789 57.6094C25.0789 44.5515 35.6645 33.9683 48.7177 33.9683C61.7733 33.9683 72.3589 44.5516 72.3589 57.6094C72.3589 70.6672 61.7734 81.2505 48.7177 81.2505C35.6645 81.2505 25.0789 70.6672 25.0789 57.6094Z" fill="white" stroke="#4373A4" stroke-width="1.5"/>
<path d="M47.8562 61.4155H47.3562V61.9155V66.6656C47.3562 67.3032 46.8383 67.8217 46.2028 67.8217H45.3722C44.7347 67.8217 44.2188 67.3037 44.2188 66.6656V49.7877C44.2188 49.1516 44.7327 48.6367 45.3722 48.6367H51.0965C55.2193 48.6367 58.4587 51.5645 58.4587 55.0249C58.4587 58.4904 55.2193 61.4155 51.0965 61.4155H47.8562ZM47.3562 58.2881V58.7881H47.8562H51.0965C53.3625 58.7881 55.3187 57.1575 55.3187 55.0249C55.3187 52.8923 53.3625 51.2615 51.0965 51.2615H47.8562H47.3562V51.7615V58.2881Z" fill="white" stroke="#4373A4"/>
<path d="M1.39203 10.618C1.39203 7.98358 3.5984 5.45686 7.4944 3.55902C11.3567 1.67759 16.728 0.5 22.6894 0.5C28.6494 0.5 34.0207 1.67759 37.8833 3.55903C41.7796 5.45689 43.9865 7.98362 43.9865 10.618V16.2883C43.9865 18.9226 41.7796 21.4494 37.8833 23.3472C34.0207 25.2287 28.6494 26.4062 22.6894 26.4062C16.728 26.4062 11.3567 25.2287 7.4944 23.3472C3.59839 21.4494 1.39203 18.9227 1.39203 16.2885V10.618ZM40.5749 10.618C40.5749 10.2213 40.4194 9.82951 40.182 9.46565C39.9426 9.09857 39.6002 8.72934 39.1755 8.36746C38.3256 7.64346 37.1001 6.90996 35.5588 6.25373C32.4722 4.93957 28.0585 3.90918 22.6894 3.90918C17.3202 3.90918 12.9065 4.93957 9.81998 6.25373C8.27869 6.90996 7.0531 7.64346 6.20329 8.36746C5.77851 8.72934 5.43616 9.09857 5.1967 9.46565C4.95934 9.82951 4.80383 10.2213 4.80383 10.618C4.80383 11.0146 4.95934 11.4064 5.1967 11.7703C5.43616 12.1374 5.77851 12.5066 6.20329 12.8685C7.0531 13.5925 8.27869 14.326 9.81998 14.9822C12.9065 16.2964 17.3202 17.3267 22.6894 17.3267C28.0585 17.3267 32.4722 16.2964 35.5588 14.9822C37.1001 14.326 38.3256 13.5925 39.1755 12.8685C39.6002 12.5066 39.9426 12.1374 40.182 11.7703C40.4194 11.4064 40.5749 11.0146 40.5749 10.618Z" fill="white" stroke="#4373A4"/>
<path d="M1.3916 33.4327V28.1594C2.74257 30.337 5.3616 32.1739 8.71415 33.5089C12.5381 35.0316 17.4024 35.9374 22.6865 35.9374C26.0003 35.9374 29.147 35.5778 31.9764 34.9371C29.5187 37.3928 27.4708 40.2674 25.9363 43.4307C24.8787 43.509 23.7936 43.5558 22.6863 43.5558C16.7277 43.5558 11.3571 42.3763 7.49477 40.4933C3.59863 38.5938 1.3916 36.0658 1.3916 33.4327Z" fill="white" stroke="#4373A4"/>
<path d="M1.25089 43.6769C1.2676 43.7252 1.29175 43.789 1.32545 43.8722C1.3218 43.8768 1.31812 43.8811 1.31446 43.8851C1.27456 43.9288 1.21793 43.9621 1.14993 43.9719L1.11168 43.7045L1.15249 43.6769L1.23314 43.6224C1.23776 43.6378 1.24362 43.6559 1.25089 43.6769ZM1.39192 50.3625V45.0884C2.74281 47.2641 5.3618 49.1011 8.71432 50.4366C12.5383 51.96 17.4025 52.8671 22.6866 52.8671H22.6978C22.8202 52.8671 22.9487 52.8671 23.0801 52.8652C22.8846 54.2576 22.7915 55.6697 22.7915 57.1094C22.7915 58.2469 22.8507 59.3638 22.9796 60.4695C22.8845 60.4701 22.7872 60.4701 22.6866 60.4701C16.7279 60.4701 11.3572 59.2937 7.49477 57.4142C3.59853 55.5181 1.39192 52.9939 1.39192 50.3625ZM0.922657 43.924C0.911072 43.9167 0.900865 43.9092 0.891922 43.9019V43.8532L1.10653 43.708L1.13803 43.9734C1.06199 43.9825 0.984195 43.9628 0.922657 43.924Z" fill="white" stroke="#4373A4"/>
<path d="M29.7654 76.8186C27.5572 77.198 25.1757 77.3936 22.6865 77.3936C16.7276 77.3936 11.357 76.2186 7.49468 74.3384C3.59893 72.442 1.39177 69.9153 1.39177 67.2757V62.0041C2.74265 64.1856 5.36157 66.0246 8.7141 67.3607C12.5382 68.8847 17.4025 69.7905 22.6865 69.7905C23.6128 69.7905 24.5356 69.7581 25.4302 69.7042C26.557 72.2765 28.024 74.6709 29.7654 76.8186ZM1.25565 60.6175C1.27259 60.6625 1.29561 60.7197 1.32612 60.7919C1.32052 60.799 1.31458 60.8059 1.30829 60.8125C1.26749 60.8557 1.2188 60.8824 1.17102 60.8952C1.16295 60.8974 1.15492 60.8991 1.14695 60.9005C1.14025 60.9012 1.13345 60.9017 1.12657 60.902C1.07049 60.9044 1.00893 60.8923 0.950192 60.8595C0.929173 60.8478 0.90962 60.834 0.891769 60.8185L0.891769 60.8072L1.10673 60.6951L1.13103 60.6825L1.25565 60.6175Z" fill="white" stroke="#4373A4"/>
</svg>
